<svg width="238" height="77" viewBox="0 0 238 77" fill="none" xmlns="http://www.w3.org/2000/svg">
<path d="M86 50.7273V26H95.0554C96.8101 26 98.263 26.2898 99.4141 26.8693C100.565 27.4408 101.426 28.2176 101.998 29.1996C102.569 30.1735 102.855 31.2723 102.855 32.4957C102.855 33.526 102.666 34.3954 102.288 35.1037C101.909 35.804 101.402 36.3674 100.766 36.794C100.138 37.2126 99.4463 37.5185 98.6896 37.7116V37.9531C99.5107 37.9934 100.312 38.259 101.092 38.75C101.881 39.233 102.533 39.9212 103.048 40.8146C103.563 41.7081 103.821 42.7947 103.821 44.0746C103.821 45.3383 103.523 46.4732 102.928 47.4794C102.34 48.4775 101.43 49.2704 100.199 49.858C98.9673 50.4375 97.3937 50.7273 95.478 50.7273H86ZM89.7308 47.5277H95.1158C96.9027 47.5277 98.1825 47.1816 98.9553 46.4893C99.728 45.7971 100.114 44.9318 100.114 43.8935C100.114 43.1127 99.9171 42.3963 99.5227 41.7443C99.1283 41.0923 98.5649 40.5732 97.8324 40.1868C97.108 39.8004 96.2467 39.6072 95.2486 39.6072H89.7308V47.5277ZM89.7308 36.6974H94.7294C95.5665 36.6974 96.3191 36.5365 96.9872 36.2145C97.6634 35.8925 98.1986 35.4418 98.593 34.8622C98.9955 34.2746 99.1967 33.5824 99.1967 32.7855C99.1967 31.7633 98.8385 30.906 98.1222 30.2138C97.4058 29.5215 96.3071 29.1754 94.826 29.1754H89.7308V36.6974Z" fill="#0F0F10"/>
<path d="M109.655 50.7273H105.695L114.593 26H118.903L127.802 50.7273H123.842L116.851 30.4915H116.658L109.655 50.7273ZM110.319 41.044H123.166V44.1832H110.319V41.044Z" fill="#0F0F10"/>
<path d="M130.693 50.7273V26H139.507C141.422 26 143.012 26.33 144.276 26.9901C145.548 27.6501 146.497 28.5637 147.125 29.7308C147.753 30.8899 148.067 32.2301 148.067 33.7514C148.067 35.2647 147.749 36.5968 147.113 37.7479C146.485 38.8909 145.536 39.7803 144.264 40.4162C143 41.0521 141.41 41.37 139.495 41.37H132.818V38.1584H139.157C140.364 38.1584 141.346 37.9853 142.103 37.6392C142.867 37.2931 143.427 36.79 143.781 36.13C144.135 35.4699 144.312 34.6771 144.312 33.7514C144.312 32.8177 144.131 32.0088 143.769 31.3246C143.415 30.6404 142.855 30.1172 142.09 29.755C141.334 29.3847 140.34 29.1996 139.108 29.1996H134.424V50.7273H130.693ZM142.899 39.571L149.009 50.7273H144.759L138.77 39.571H142.899Z" fill="#0F0F10"/>
<path d="M151.927 50.7273V26H155.658V37.8082H155.959L166.331 26H171.028L161.055 37.1321L171.064 50.7273H166.572L158.579 39.6797L155.658 43.0362V50.7273H151.927Z" fill="#0F0F10"/>
<path d="M172.98 50.7273V26H183.194C185.046 26 186.643 26.3622 187.988 27.0866C189.34 27.803 190.382 28.8052 191.115 30.093C191.847 31.3729 192.213 32.862 192.213 34.5604C192.213 36.2668 191.839 37.7599 191.091 39.0398C190.35 40.3116 189.292 41.2976 187.915 41.9979C186.539 42.6982 184.905 43.0483 183.013 43.0483H176.711V38.3395H181.902C182.804 38.3395 183.556 38.1825 184.16 37.8686C184.772 37.5547 185.235 37.116 185.549 36.5526C185.863 35.9811 186.02 35.317 186.02 34.5604C186.02 33.7957 185.863 33.1357 185.549 32.5803C185.235 32.0168 184.772 31.5822 184.16 31.2763C183.548 30.9704 182.796 30.8175 181.902 30.8175H178.956V50.7273H172.98Z" fill="#0F0F10"/>
<path d="M196.84 50.7273H190.417L198.76 26H206.716L215.059 50.7273H208.636L202.829 32.2301H202.635L196.84 50.7273ZM195.983 40.9957H209.409V45.5355H195.983V40.9957Z" fill="#0F0F10"/>
<path d="M213.287 26H219.964L225.191 36.3473H225.409L230.637 26H237.314L228.27 42.4688V50.7273H222.33V42.4688L213.287 26Z" fill="#0F0F10"/>
<g clip-path="url(#clip0_15_38)">
<mask id="mask0_15_38" style="mask-type:luminance" maskUnits="userSpaceOnUse" x="0" y="6" width="70" height="64">
<path d="M70 6H0V69.6937H70V6Z" fill="white"/>
</mask>
<g mask="url(#mask0_15_38)">
<path fill-rule="evenodd" clip-rule="evenodd" d="M42.1402 34.818L42.2702 37.2077L39.843 36.1649L42.1409 34.818H42.1402ZM48.0723 22.1726C48.0723 22.1726 51.5698 27.164 42.513 24.1741C42.513 24.1741 44.4902 21.9597 48.0723 22.1726ZM43.329 30.2967C46.221 33.8106 45.7501 39.666 45.7501 39.666C44.9882 38.4244 42.9474 37.4877 42.9474 37.4877C43.844 33.3185 43.329 30.2967 43.329 30.2967ZM50.0088 34.8519L46.7143 39.4899L46.5235 34.6992L50.0088 34.8513V34.8519ZM49.7314 36.7644L50.5325 43.2795L46.9666 40.322L49.7307 36.7644H49.7314ZM54.5592 36.4216C54.2006 41.7615 50.6584 45.416 50.6584 45.416C52.0488 40.2853 51.017 35.016 51.017 35.016L54.5585 36.4216H54.5592ZM27.8598 34.8173L27.7306 37.207L30.1576 36.1642L27.8598 34.8173ZM21.9277 22.1719C21.9277 22.1719 18.4302 27.1633 27.487 24.1734C27.487 24.1734 25.5099 21.959 21.9277 22.1719ZM26.6716 30.2961C23.7797 33.8098 24.2506 39.6653 24.2506 39.6653C25.0125 38.4237 27.0526 37.487 27.0526 37.487C26.156 33.3178 26.6716 30.2961 26.6716 30.2961ZM19.9912 34.8513L23.2864 39.4892L23.4772 34.6985L19.9912 34.8506V34.8513ZM20.2686 36.7637L19.4668 43.2787L23.0326 40.3214L20.2686 36.7637ZM15.4408 36.4208C15.7994 41.7608 19.3416 45.4153 19.3416 45.4153C17.9518 40.2846 18.983 35.0153 18.983 35.0153L15.4408 36.4208ZM35.0004 18.4212C35.0004 18.4212 45.2439 6.42827 52.5963 14.9547C57.4782 4.81276 61.8743 24.6414 63.4468 25.5888C56.3049 23.7873 54.7067 9.05833 41.4331 18.7026C54.5443 12.0469 54.8312 24.3148 57.8422 27.369C57.8422 27.369 54.1992 25.4835 50.2544 26.3036C50.2544 26.3036 51.2186 23.5399 49.4925 21.4083C49.4925 21.4083 51.8912 21.385 53.0117 23.0478C50.7571 9.88269 39.7111 29.0941 37.4092 20.9162C37.4092 20.9162 36.7143 22.9305 37.2745 24.336C37.2745 24.336 35.5281 22.7897 35.0004 18.9719C34.4726 22.7897 32.7255 24.336 32.7255 24.336C33.2864 22.9305 32.5908 20.9162 32.5908 20.9162C30.2889 29.0941 19.2435 9.88269 16.989 23.0478C18.1101 21.385 20.5088 21.4083 20.5088 21.4083C18.7827 23.5399 19.7469 26.3036 19.7469 26.3036C15.8015 25.4842 12.1591 27.369 12.1591 27.369C15.1709 24.3148 15.4564 12.0469 28.5682 18.7026C15.294 9.05833 13.6958 23.7873 6.55456 25.5888C8.12706 24.6407 12.5218 4.81276 17.4051 14.9547C24.7581 6.42827 35.001 18.4212 35.001 18.4212H35.0004ZM42.195 11.5343C42.195 11.5343 38.0276 10.9722 35.0004 14.2046C31.9731 10.9722 27.8057 11.5343 27.8057 11.5343C30.3721 8.80451 39.6285 8.80451 42.195 11.5343ZM66.4307 38.7949C69.8066 33.9597 66.8861 31.2901 65.2107 30.2565C67.5499 30.2098 69.3684 28.9167 70 26.5715C62.3777 25.8921 64.9286 2.05616 52.0198 10.4285C51.1239 6.71885 45.3901 8.632 44.5064 8.95086C39.4783 5.01638 30.519 5.01638 25.4915 8.95086C24.6085 8.632 18.8748 6.71885 17.9782 10.4285C5.07073 2.05757 7.62162 25.8935 0 26.573C0.631301 28.9181 2.45007 30.2112 4.78853 30.2578C3.11456 31.2915 0.193515 33.9611 3.5686 38.7964C-16.1425 79.9928 86.1427 79.9928 66.4307 38.7964V38.7949ZM63.7939 41.2709C63.7939 41.2709 66.1709 51.8582 56.8455 58.6038C56.8455 58.6038 58.7732 52.561 55.8137 47.9697C55.8137 47.9697 57.5621 56.4015 47.0708 64.4599C47.0708 64.4599 50.5684 60.9927 50.209 55.3714C47.5743 69.3679 22.4244 69.3679 19.7896 55.3714C19.431 60.9927 22.9278 64.4599 22.9278 64.4599C12.4359 56.4015 14.185 47.9697 14.185 47.9697C11.226 52.561 13.1538 58.6038 13.1538 58.6038C3.82838 51.8575 6.20544 41.2709 6.20544 41.2709C7.77456 44.3159 10.3749 45.0654 10.3749 45.0654C-0.985184 30.3158 11.3242 29.4059 25.7081 28.3171C23.4218 27.1223 21.5163 27.4044 21.5163 27.4044C24.4415 25.9331 29.4255 23.8396 32.0746 26.6076C32.0746 26.6076 29.1596 26.7009 28.5324 29.6053C28.619 29.688 36.7589 35.4614 33.2404 35.4614L31.8729 34.712L30.864 35.5314C30.864 35.5314 29.4289 34.3599 27.5912 33.5638C27.5912 33.5638 27.0979 30.1207 27.7705 28.0591C27.7705 28.0591 25.6181 28.9492 24.4076 32.697C24.4076 32.697 19.3863 30.6354 12.3473 33.5398C12.3473 33.5398 9.88162 42.3936 20.7315 50.5454C20.9054 34.3408 49.094 34.3408 49.2685 50.5454C60.1184 42.3943 57.6521 33.5398 57.6521 33.5398C50.613 30.6354 45.5917 32.697 45.5917 32.697C44.3813 28.9492 42.2288 28.0591 42.2288 28.0591C42.9014 30.1207 42.4082 33.5638 42.4082 33.5638C40.5697 34.3599 39.1353 35.5314 39.1353 35.5314L38.1264 34.712L36.7589 35.4614C33.2404 35.4614 41.3804 29.688 41.4663 29.6053C40.8384 26.7009 37.924 26.6076 37.924 26.6076C40.5738 23.8396 45.5579 25.9331 48.483 27.4044C48.483 27.4044 46.5776 27.123 44.2913 28.3171C58.6752 29.4059 70.9846 30.3158 59.6251 45.0654C59.6251 45.0654 62.2254 44.3159 63.7946 41.2709H63.7939Z" fill="#030D14"/>
<mask id="mask1_15_38" style="mask-type:luminance" maskUnits="userSpaceOnUse" x="-1" y="5" width="72" height="65">
<path d="M70.2206 5.84744H-0.220581V69.8462H70.2206V5.84744Z" fill="white"/>
<path fill-rule="evenodd" clip-rule="evenodd" d="M42.1402 34.818L42.2702 37.2077L39.843 36.1649L42.1409 34.818H42.1402ZM48.0723 22.1726C48.0723 22.1726 51.5698 27.164 42.513 24.1741C42.513 24.1741 44.4902 21.9597 48.0723 22.1726ZM43.329 30.2967C46.221 33.8106 45.7501 39.666 45.7501 39.666C44.9882 38.4244 42.9474 37.4877 42.9474 37.4877C43.844 33.3185 43.329 30.2967 43.329 30.2967ZM50.0088 34.8519L46.7143 39.4899L46.5235 34.6992L50.0088 34.8513V34.8519ZM49.7314 36.7644L50.5325 43.2795L46.9666 40.322L49.7307 36.7644H49.7314ZM54.5592 36.4216C54.2006 41.7615 50.6584 45.416 50.6584 45.416C52.0488 40.2853 51.017 35.016 51.017 35.016L54.5585 36.4216H54.5592ZM27.8598 34.8173L27.7306 37.207L30.1576 36.1642L27.8598 34.8173ZM21.9277 22.1719C21.9277 22.1719 18.4302 27.1633 27.487 24.1734C27.487 24.1734 25.5099 21.959 21.9277 22.1719ZM26.6716 30.2961C23.7797 33.8098 24.2506 39.6653 24.2506 39.6653C25.0125 38.4237 27.0526 37.487 27.0526 37.487C26.156 33.3178 26.6716 30.2961 26.6716 30.2961ZM19.9912 34.8513L23.2864 39.4892L23.4772 34.6985L19.9912 34.8506V34.8513ZM20.2686 36.7637L19.4668 43.2787L23.0326 40.3214L20.2686 36.7637ZM15.4408 36.4208C15.7994 41.7608 19.3416 45.4153 19.3416 45.4153C17.9518 40.2846 18.983 35.0153 18.983 35.0153L15.4408 36.4208ZM35.0004 18.4212C35.0004 18.4212 45.2439 6.42827 52.5963 14.9547C57.4782 4.81276 61.8743 24.6414 63.4468 25.5888C56.3049 23.7873 54.7067 9.05833 41.4331 18.7026C54.5443 12.0469 54.8312 24.3148 57.8422 27.369C57.8422 27.369 54.1992 25.4835 50.2544 26.3036C50.2544 26.3036 51.2186 23.5399 49.4925 21.4083C49.4925 21.4083 51.8912 21.385 53.0117 23.0478C50.7571 9.88269 39.7111 29.0941 37.4092 20.9162C37.4092 20.9162 36.7143 22.9305 37.2745 24.336C37.2745 24.336 35.5281 22.7897 35.0004 18.9719C34.4726 22.7897 32.7255 24.336 32.7255 24.336C33.2864 22.9305 32.5908 20.9162 32.5908 20.9162C30.2889 29.0941 19.2435 9.88269 16.989 23.0478C18.1101 21.385 20.5088 21.4083 20.5088 21.4083C18.7827 23.5399 19.7469 26.3036 19.7469 26.3036C15.8015 25.4842 12.1591 27.369 12.1591 27.369C15.1709 24.3148 15.4564 12.0469 28.5682 18.7026C15.294 9.05833 13.6958 23.7873 6.55456 25.5888C8.12706 24.6407 12.5218 4.81276 17.4051 14.9547C24.7581 6.42827 35.001 18.4212 35.001 18.4212H35.0004ZM42.195 11.5343C42.195 11.5343 38.0276 10.9722 35.0004 14.2046C31.9731 10.9722 27.8057 11.5343 27.8057 11.5343C30.3721 8.80451 39.6285 8.80451 42.195 11.5343ZM66.4307 38.7949C69.8066 33.9597 66.8861 31.2901 65.2107 30.2565C67.5499 30.2098 69.3684 28.9167 70 26.5715C62.3777 25.8921 64.9286 2.05616 52.0198 10.4285C51.1239 6.71885 45.3901 8.632 44.5064 8.95086C39.4783 5.01638 30.519 5.01638 25.4915 8.95086C24.6085 8.632 18.8748 6.71885 17.9782 10.4285C5.07073 2.05757 7.62162 25.8935 0 26.573C0.631301 28.9181 2.45007 30.2112 4.78853 30.2578C3.11456 31.2915 0.193515 33.9611 3.5686 38.7964C-16.1425 79.9928 86.1427 79.9928 66.4307 38.7964V38.7949ZM63.7939 41.2709C63.7939 41.2709 66.1709 51.8582 56.8455 58.6038C56.8455 58.6038 58.7732 52.561 55.8137 47.9697C55.8137 47.9697 57.5621 56.4015 47.0708 64.4599C47.0708 64.4599 50.5684 60.9927 50.209 55.3714C47.5743 69.3679 22.4244 69.3679 19.7896 55.3714C19.431 60.9927 22.9278 64.4599 22.9278 64.4599C12.4359 56.4015 14.185 47.9697 14.185 47.9697C11.226 52.561 13.1538 58.6038 13.1538 58.6038C3.82838 51.8575 6.20544 41.2709 6.20544 41.2709C7.77456 44.3159 10.3749 45.0654 10.3749 45.0654C-0.985184 30.3158 11.3242 29.4059 25.7081 28.3171C23.4218 27.1223 21.5163 27.4044 21.5163 27.4044C24.4415 25.9331 29.4255 23.8396 32.0746 26.6076C32.0746 26.6076 29.1596 26.7009 28.5324 29.6053C28.619 29.688 36.7589 35.4614 33.2404 35.4614L31.8729 34.712L30.864 35.5314C30.864 35.5314 29.4289 34.3599 27.5912 33.5638C27.5912 33.5638 27.0979 30.1207 27.7705 28.0591C27.7705 28.0591 25.6181 28.9492 24.4076 32.697C24.4076 32.697 19.3863 30.6354 12.3473 33.5398C12.3473 33.5398 9.88162 42.3936 20.7315 50.5454C20.9054 34.3408 49.094 34.3408 49.2685 50.5454C60.1184 42.3943 57.6521 33.5398 57.6521 33.5398C50.613 30.6354 45.5917 32.697 45.5917 32.697C44.3813 28.9492 42.2288 28.0591 42.2288 28.0591C42.9014 30.1207 42.4082 33.5638 42.4082 33.5638C40.5697 34.3599 39.1353 35.5314 39.1353 35.5314L38.1264 34.712L36.7589 35.4614C33.2404 35.4614 41.3804 29.688 41.4663 29.6053C40.8384 26.7009 37.924 26.6076 37.924 26.6076C40.5738 23.8396 45.5579 25.9331 48.483 27.4044C48.483 27.4044 46.5776 27.123 44.2913 28.3171C58.6752 29.4059 70.9846 30.3158 59.6251 45.0654C59.6251 45.0654 62.2254 44.3159 63.7946 41.2709H63.7939Z" fill="black"/>
</mask>
<g mask="url(#mask1_15_38)">
<path fill-rule="evenodd" clip-rule="evenodd" d="M42.1402 34.818L42.2702 37.2077L39.843 36.1649L42.1409 34.818H42.1402ZM48.0723 22.1726C48.0723 22.1726 51.5698 27.164 42.513 24.1741C42.513 24.1741 44.4902 21.9597 48.0723 22.1726ZM43.329 30.2967C46.221 33.8106 45.7501 39.666 45.7501 39.666C44.9882 38.4244 42.9474 37.4877 42.9474 37.4877C43.844 33.3185 43.329 30.2967 43.329 30.2967ZM50.0088 34.8519L46.7143 39.4899L46.5235 34.6992L50.0088 34.8513V34.8519ZM49.7314 36.7644L50.5325 43.2795L46.9666 40.322L49.7307 36.7644H49.7314ZM54.5592 36.4216C54.2006 41.7615 50.6584 45.416 50.6584 45.416C52.0488 40.2853 51.017 35.016 51.017 35.016L54.5585 36.4216H54.5592ZM27.8598 34.8173L27.7306 37.207L30.1576 36.1642L27.8598 34.8173ZM21.9277 22.1719C21.9277 22.1719 18.4302 27.1633 27.487 24.1734C27.487 24.1734 25.5099 21.959 21.9277 22.1719ZM26.6716 30.2961C23.7797 33.8098 24.2506 39.6653 24.2506 39.6653C25.0125 38.4237 27.0526 37.487 27.0526 37.487C26.156 33.3178 26.6716 30.2961 26.6716 30.2961ZM19.9912 34.8513L23.2864 39.4892L23.4772 34.6985L19.9912 34.8506V34.8513ZM20.2686 36.7637L19.4668 43.2787L23.0326 40.3214L20.2686 36.7637ZM15.4408 36.4208C15.7994 41.7608 19.3416 45.4153 19.3416 45.4153C17.9518 40.2846 18.983 35.0153 18.983 35.0153L15.4408 36.4208ZM35.0004 18.4212C35.0004 18.4212 45.2439 6.42827 52.5963 14.9547C57.4782 4.81276 61.8743 24.6414 63.4468 25.5888C56.3049 23.7873 54.7067 9.05833 41.4331 18.7026C54.5443 12.0469 54.8312 24.3148 57.8422 27.369C57.8422 27.369 54.1992 25.4835 50.2544 26.3036C50.2544 26.3036 51.2186 23.5399 49.4925 21.4083C49.4925 21.4083 51.8912 21.385 53.0117 23.0478C50.7571 9.88269 39.7111 29.0941 37.4092 20.9162C37.4092 20.9162 36.7143 22.9305 37.2745 24.336C37.2745 24.336 35.5281 22.7897 35.0004 18.9719C34.4726 22.7897 32.7255 24.336 32.7255 24.336C33.2864 22.9305 32.5908 20.9162 32.5908 20.9162C30.2889 29.0941 19.2435 9.88269 16.989 23.0478C18.1101 21.385 20.5088 21.4083 20.5088 21.4083C18.7827 23.5399 19.7469 26.3036 19.7469 26.3036C15.8015 25.4842 12.1591 27.369 12.1591 27.369C15.1709 24.3148 15.4564 12.0469 28.5682 18.7026C15.294 9.05833 13.6958 23.7873 6.55456 25.5888C8.12706 24.6407 12.5218 4.81276 17.4051 14.9547C24.7581 6.42827 35.001 18.4212 35.001 18.4212H35.0004ZM42.195 11.5343C42.195 11.5343 38.0276 10.9722 35.0004 14.2046C31.9731 10.9722 27.8057 11.5343 27.8057 11.5343C30.3721 8.80451 39.6285 8.80451 42.195 11.5343ZM66.4307 38.7949C69.8066 33.9597 66.8861 31.2901 65.2107 30.2565C67.5499 30.2098 69.3684 28.9167 70 26.5715C62.3777 25.8921 64.9286 2.05616 52.0198 10.4285C51.1239 6.71885 45.3901 8.632 44.5064 8.95086C39.4783 5.01638 30.519 5.01638 25.4915 8.95086C24.6085 8.632 18.8748 6.71885 17.9782 10.4285C5.07073 2.05757 7.62162 25.8935 0 26.573C0.631301 28.9181 2.45007 30.2112 4.78853 30.2578C3.11456 31.2915 0.193515 33.9611 3.5686 38.7964C-16.1425 79.9928 86.1427 79.9928 66.4307 38.7964V38.7949ZM63.7939 41.2709C63.7939 41.2709 66.1709 51.8582 56.8455 58.6038C56.8455 58.6038 58.7732 52.561 55.8137 47.9697C55.8137 47.9697 57.5621 56.4015 47.0708 64.4599C47.0708 64.4599 50.5684 60.9927 50.209 55.3714C47.5743 69.3679 22.4244 69.3679 19.7896 55.3714C19.431 60.9927 22.9278 64.4599 22.9278 64.4599C12.4359 56.4015 14.185 47.9697 14.185 47.9697C11.226 52.561 13.1538 58.6038 13.1538 58.6038C3.82838 51.8575 6.20544 41.2709 6.20544 41.2709C7.77456 44.3159 10.3749 45.0654 10.3749 45.0654C-0.985184 30.3158 11.3242 29.4059 25.7081 28.3171C23.4218 27.1223 21.5163 27.4044 21.5163 27.4044C24.4415 25.9331 29.4255 23.8396 32.0746 26.6076C32.0746 26.6076 29.1596 26.7009 28.5324 29.6053C28.619 29.688 36.7589 35.4614 33.2404 35.4614L31.8729 34.712L30.864 35.5314C30.864 35.5314 29.4289 34.3599 27.5912 33.5638C27.5912 33.5638 27.0979 30.1207 27.7705 28.0591C27.7705 28.0591 25.6181 28.9492 24.4076 32.697C24.4076 32.697 19.3863 30.6354 12.3473 33.5398C12.3473 33.5398 9.88162 42.3936 20.7315 50.5454C20.9054 34.3408 49.094 34.3408 49.2685 50.5454C60.1184 42.3943 57.6521 33.5398 57.6521 33.5398C50.613 30.6354 45.5917 32.697 45.5917 32.697C44.3813 28.9492 42.2288 28.0591 42.2288 28.0591C42.9014 30.1207 42.4082 33.5638 42.4082 33.5638C40.5697 34.3599 39.1353 35.5314 39.1353 35.5314L38.1264 34.712L36.7589 35.4614C33.2404 35.4614 41.3804 29.688 41.4663 29.6053C40.8384 26.7009 37.924 26.6076 37.924 26.6076C40.5738 23.8396 45.5579 25.9331 48.483 27.4044C48.483 27.4044 46.5776 27.123 44.2913 28.3171C58.6752 29.4059 70.9846 30.3158 59.6251 45.0654C59.6251 45.0654 62.2254 44.3159 63.7946 41.2709H63.7939Z" stroke="#FAFAFA" stroke-width="4"/>
</g>
<path d="M25.2941 24.4597C26.1063 24.4597 26.7647 23.7767 26.7647 22.9341C26.7647 22.0915 26.1063 21.4085 25.2941 21.4085C24.4819 21.4085 23.8235 22.0915 23.8235 22.9341C23.8235 23.7767 24.4819 24.4597 25.2941 24.4597Z" fill="#030D14" fill-opacity="0.9"/>
<path d="M44.7794 24.4597C45.5916 24.4597 46.25 23.7767 46.25 22.9341C46.25 22.0915 45.5916 21.4085 44.7794 21.4085C43.9672 21.4085 43.3088 22.0915 43.3088 22.9341C43.3088 23.7767 43.9672 24.4597 44.7794 24.4597Z" fill="#030D14" fill-opacity="0.9"/>
<path d="M44.7795 23.2393C44.9419 23.2393 45.0736 23.1027 45.0736 22.9341C45.0736 22.7656 44.9419 22.629 44.7795 22.629C44.617 22.629 44.4854 22.7656 44.4854 22.9341C44.4854 23.1027 44.617 23.2393 44.7795 23.2393Z" fill="#030D14" fill-opacity="0.9"/>
<path d="M25.5882 23.2393C25.7506 23.2393 25.8823 23.1027 25.8823 22.9341C25.8823 22.7656 25.7506 22.629 25.5882 22.629C25.4258 22.629 25.2941 22.7656 25.2941 22.9341C25.2941 23.1027 25.4258 23.2393 25.5882 23.2393Z" fill="#030D14" fill-opacity="0.9"/>
</g>
</g>
<defs>
<clipPath id="clip0_15_38">
<rect width="70" height="63.6937" fill="white" transform="translate(0 6)"/>
</clipPath>
</defs>
</svg>
